<svg xmlns="http://www.w3.org/2000/svg" viewBox="0 0 1024 1024" width="1024" height="1024">
<!-- Teko mascot, line-art edition - the ink layer of docs/teko.svg -->
<path d="M 708.50 859.88 C705.86,860.35 704.32,860.79 704.94,860.88 C702.05,861.13 699.17,861.35 696.37,861.52 C696.01,861.39 694.47,861.19 692.00,860.90 C687.88,860.41 682.03,859.19 679.00,858.19 C675.97,857.18 671.51,856.26 669.08,856.13 C662.18,855.77 654.35,851.35 646.11,843.16 C642.53,839.61 640.62,837.54 638.27,836.74 C635.13,835.67 631.22,836.88 621.57,839.86 C620.90,840.06 620.22,840.27 619.50,840.49 C612.90,842.52 602.42,845.26 596.20,846.58 C558.51,854.58 511.17,853.39 476.21,843.56 C469.05,841.54 464.84,841.00 456.48,841.00 L 445.84 841.00 L 441.29 845.55 C434.75,852.09 426.46,855.99 417.08,856.93 C412.86,857.36 408.31,858.30 406.96,859.03 C403.46,860.90 385.40,861.50 376.22,860.04 C361.24,857.66 346.58,852.84 332.00,845.50 C326.37,842.67 323.91,842.00 319.08,842.00 C281.66,842.00 227.41,829.96 196.00,814.68 C181.18,807.48 180.74,807.29 184.11,809.66 C186.26,811.18 186.55,811.88 185.76,813.64 C185.65,813.89 185.49,814.15 185.31,814.41 C185.48,814.16 185.62,813.91 185.73,813.68 C186.56,811.81 185.55,810.80 176.40,804.27 C165.50,796.49 158.97,789.97 154.34,782.24 C151.82,778.03 151.49,776.49 151.38,768.50 C151.32,764.02 151.22,759.81 151.15,758.54 C151.32,758.82 151.64,759.00 152.00,759.00 C152.55,759.00 153.00,758.33 153.00,757.50 C153.00,756.30 151.67,756.04 146.25,756.19 L 139.50 756.38 L 145.25 756.74 C148.28,756.93 150.78,757.48 150.99,757.98 C150.23,757.25 146.39,757.00 136.96,757.00 C120.22,757.00 116.72,755.78 111.95,748.26 C108.00,742.03 108.15,738.26 112.90,724.66 C131.25,672.14 173.34,613.67 215.21,582.54 C231.41,570.50 232.00,570.00 232.00,568.42 C232.00,567.60 229.16,563.46 225.69,559.22 C194.22,520.73 178.40,470.00 180.35,413.87 C181.23,388.43 182.52,378.75 188.18,355.13 C194.72,327.78 206.37,300.18 222.10,274.79 C227.17,266.61 238.15,251.03 240.61,248.55 C241.22,247.93 243.86,244.79 246.49,241.57 C260.49,224.38 287.90,200.36 311.00,185.04 C346.83,161.28 386.91,143.77 430.48,132.85 C465.86,123.97 491.25,120.91 529.00,120.96 C597.96,121.05 662.90,139.62 715.34,174.26 C739.33,190.11 765.97,215.17 783.61,238.50 C796.58,255.65 804.31,268.04 814.19,287.50 C845.03,348.22 855.85,412.88 845.40,474.00 C838.97,511.64 819.76,548.23 792.17,575.38 L 785.18 582.27 L 795.73 592.88 C816.94,614.22 833.70,639.90 845.71,669.50 C854.26,690.56 857.99,708.05 858.00,727.14 C858.00,742.35 855.88,749.70 849.40,756.90 C845.09,761.70 844.53,762.00 839.98,762.00 C837.33,762.00 832.87,761.47 830.08,760.83 C827.29,760.19 824.69,759.97 824.31,760.36 C823.93,760.74 823.29,764.08 822.89,767.78 C821.65,779.31 818.66,785.58 810.79,793.17 C807.05,796.78 804.38,799.82 802.73,802.40 C802.90,801.95 802.96,801.62 802.85,801.52 C802.62,801.29 800.44,804.47 798.01,808.60 C790.09,822.03 776.37,834.33 760.50,842.22 C744.49,850.19 724.30,857.04 708.50,859.88 ZM 527.50 826.60 C538.28,828.65 557.68,827.68 566.50,824.66 C578.43,820.56 580.45,819.76 582.00,818.47 C582.83,817.79 585.97,815.99 589.00,814.47 C592.03,812.96 595.94,810.62 597.71,809.27 C599.47,807.93 601.38,807.12 601.96,807.47 C603.29,808.29 603.31,811.69 602.00,812.50 C599.65,813.95 601.07,816.00 604.42,816.00 C609.61,816.00 610.50,815.38 616.38,807.66 C620.92,801.69 632.00,781.72 632.00,779.50 C632.00,777.69 645.73,747.78 648.68,743.16 C660.16,725.18 678.31,714.00 696.04,714.00 C700.20,714.00 704.03,713.63 704.55,713.18 C705.07,712.73 708.88,711.07 713.00,709.49 C717.12,707.92 721.04,706.22 721.70,705.73 C725.08,703.22 728.65,679.85 727.51,667.76 C726.33,655.27 726.35,654.50 727.92,654.50 C729.52,654.50 733.99,662.63 736.65,670.37 C737.62,673.19 738.86,676.11 739.41,676.85 C741.04,679.05 743.69,674.81 746.43,665.64 C750.23,652.90 750.20,632.50 746.35,623.30 C744.98,620.01 744.50,614.00 745.61,614.00 C745.95,614.00 748.49,616.47 751.26,619.50 C754.03,622.53 756.86,625.00 757.55,625.00 C759.19,625.00 761.00,619.70 761.00,614.90 C761.00,606.42 757.11,594.73 751.60,586.71 C750.17,584.62 749.00,582.07 749.00,581.05 C749.00,579.22 752.83,575.72 764.23,567.11 C768.85,563.63 778.44,554.42 784.51,547.63 C792.77,538.41 801.45,525.01 805.00,515.99 C806.16,513.05 807.75,510.16 808.53,509.57 C810.19,508.32 817.45,489.55 820.14,479.56 C824.54,463.20 826.91,435.59 826.17,409.50 C825.61,389.85 816.72,344.09 811.49,333.99 C810.72,332.50 809.11,328.41 807.91,324.89 C801.61,306.44 788.81,280.83 776.47,262.00 C759.26,235.75 725.20,201.67 701.50,186.99 C697.65,184.61 693.83,182.11 693.00,181.45 C691.56,180.29 665.68,167.21 659.50,164.53 C657.85,163.81 654.70,162.44 652.50,161.49 C638.72,155.51 608.69,147.17 590.87,144.38 C584.62,143.40 579.18,142.12 578.79,141.55 C578.03,140.43 576.46,140.36 531.59,139.36 C511.66,138.91 499.08,139.09 491.09,139.92 C476.01,141.50 443.43,146.73 434.50,149.02 C422.22,152.16 408.58,156.21 406.00,157.49 C404.62,158.17 401.76,159.05 399.63,159.43 C397.50,159.82 395.02,160.54 394.13,161.03 C393.23,161.52 386.65,164.22 379.50,167.02 C357.90,175.49 330.44,190.61 310.38,205.09 C279.88,227.10 250.33,259.91 233.74,290.17 C230.31,296.43 227.01,302.67 226.40,304.03 C225.80,305.39 224.11,309.02 222.65,312.10 C221.19,315.18 219.99,318.33 219.98,319.10 C219.97,319.87 219.03,322.52 217.89,325.00 C213.81,333.89 207.95,355.77 205.03,373.00 C204.52,376.02 203.59,385.70 202.95,394.50 C201.44,415.56 202.25,429.85 206.53,457.50 C207.68,464.89 210.15,474.47 211.96,478.50 C212.95,480.70 214.27,484.75 214.89,487.50 C216.26,493.51 226.40,514.69 231.70,522.62 C233.79,525.75 236.28,529.48 237.22,530.90 C238.17,532.33 239.52,534.36 240.22,535.40 C242.02,538.09 246.46,543.20 253.92,551.15 C261.03,558.75 261.59,558.92 272.57,556.92 C279.93,555.58 280.63,554.93 279.01,551.02 C278.31,549.33 277.90,547.77 278.12,547.57 C278.33,547.36 282.97,549.38 288.43,552.05 C294.01,554.78 301.72,557.64 306.06,558.57 C314.96,560.50 316.50,561.24 315.73,563.26 C315.01,565.13 304.99,566.61 303.99,564.99 C303.23,563.75 291.00,564.69 291.00,565.99 C291.00,566.39 288.86,566.98 286.25,567.29 C280.95,567.93 259.75,575.62 250.50,580.27 C237.74,586.67 218.02,601.42 201.77,616.70 C188.44,629.24 177.55,641.56 171.24,651.24 C169.18,654.40 165.67,659.57 163.42,662.74 C158.27,670.03 148.46,686.63 144.34,695.05 C140.95,701.98 140.94,702.00 135.46,715.50 C133.44,720.45 131.33,725.48 130.77,726.68 C128.67,731.12 130.19,732.00 139.90,732.00 C163.53,732.00 181.65,725.89 197.66,712.53 C201.96,708.94 205.83,706.00 206.27,706.00 C209.36,706.00 206.18,716.14 200.72,723.67 C198.95,726.11 196.49,729.50 195.25,731.20 C194.01,732.90 193.00,734.64 193.00,735.05 C193.00,736.61 199.56,738.00 206.90,738.00 C225.79,738.00 242.80,731.51 261.52,717.15 C270.12,710.55 270.60,712.54 263.68,726.18 C259.74,733.93 258.31,737.71 259.03,738.43 C259.75,739.15 263.37,738.62 270.78,736.73 C296.90,730.06 315.86,719.37 333.70,701.24 C344.62,690.15 350.13,682.67 356.34,670.50 C363.36,656.75 366.25,644.51 366.39,628.00 C366.48,616.81 366.10,613.00 364.18,605.77 C361.73,596.53 361.95,593.74 364.94,596.45 C367.95,599.17 374.68,614.16 376.63,622.50 C379.18,633.42 378.95,649.99 376.09,660.40 C374.94,664.59 374.00,668.65 374.00,669.41 C374.00,672.25 362.81,694.35 359.54,697.96 C358.64,698.95 357.82,701.01 357.70,702.53 C357.51,705.21 357.77,705.37 365.00,706.97 C369.12,707.89 375.65,710.00 379.50,711.66 C384.70,713.91 388.70,714.83 395.04,715.28 C409.20,716.27 420.89,721.98 431.63,733.16 C441.07,742.98 446.28,751.71 450.38,764.56 C454.52,777.54 456.00,785.60 456.00,795.16 C456.00,804.06 456.05,804.24 459.25,807.26 C464.85,812.55 487.66,822.11 491.31,820.71 C492.28,820.34 492.65,819.37 492.31,818.08 C492.02,816.95 492.04,815.35 492.36,814.52 C492.87,813.18 493.39,813.21 496.72,814.72 C498.80,815.66 501.64,817.20 503.04,818.14 C506.85,820.69 519.57,825.09 527.50,826.60 ZM 549.03 613.95 C544.37,614.53 540.09,614.94 539.53,614.87 C538.96,614.80 535.43,614.38 531.68,613.94 C513.38,611.82 493.13,602.14 473.63,586.22 C460.30,575.33 448.84,563.68 429.66,541.52 C410.59,519.49 407.79,516.00 404.31,515.09 C403.39,514.84 402.42,514.78 401.10,514.61 C395.25,513.83 385.50,509.06 377.68,503.15 C371.91,498.78 362.59,485.34 360.94,479.00 C359.10,471.92 360.45,461.81 364.16,454.84 C368.38,446.92 370.70,444.83 381.90,438.82 C402.10,427.98 426.00,411.33 426.00,408.10 C426.00,406.56 419.41,403.22 412.81,401.41 C409.34,400.46 405.38,399.14 404.00,398.48 C400.80,396.93 388.45,395.24 374.81,394.47 C366.92,394.03 361.96,394.30 355.81,395.51 C344.39,397.76 336.00,400.15 336.00,401.16 C336.00,401.62 335.44,402.01 334.75,402.02 C331.88,402.05 312.70,411.16 306.03,415.65 C302.07,418.32 298.09,420.95 297.19,421.50 C296.30,422.05 292.17,424.64 288.03,427.25 C277.54,433.86 271.00,434.83 271.00,429.77 C271.00,427.22 277.47,417.00 279.08,417.00 C281.18,417.00 283.00,409.98 283.02,401.78 C283.03,394.41 283.86,389.94 287.58,377.00 C287.98,375.62 289.04,373.38 289.94,372.00 C290.84,370.62 292.17,368.32 292.89,366.87 C294.55,363.57 304.34,353.22 309.00,349.86 C313.76,346.42 326.20,339.99 332.41,337.75 C340.73,334.76 361.20,334.29 372.63,336.83 C399.12,342.72 423.03,361.42 436.58,386.87 C438.73,390.92 441.05,394.45 441.72,394.71 C442.39,394.98 448.47,391.16 455.22,386.24 C474.59,372.11 487.86,365.00 503.01,360.62 C525.04,354.26 543.95,354.54 572.83,361.68 C578.76,363.15 583.53,363.87 584.04,363.36 C584.54,362.86 584.52,359.72 583.98,355.99 C582.02,342.45 583.15,322.60 586.62,309.50 C588.98,300.58 595.71,285.32 600.19,278.73 C608.38,266.66 623.87,253.83 635.06,249.83 C640.72,247.81 661.29,244.00 666.52,244.00 C677.36,244.01 694.59,248.26 705.04,253.49 C741.56,271.78 764.88,310.45 762.63,349.00 C761.98,360.26 758.42,375.93 755.05,382.46 C753.92,384.64 753.00,386.92 753.00,387.53 C753.00,389.60 745.29,392.97 737.39,394.34 C733.05,395.09 729.36,395.59 729.18,395.45 C729.00,395.30 729.95,393.46 731.28,391.34 C734.44,386.35 739.34,375.08 741.66,367.50 C743.13,362.72 743.49,358.24 743.47,345.50 C743.45,330.07 743.33,329.16 740.18,320.00 C735.43,306.17 729.09,296.09 718.49,285.50 C705.81,272.83 695.14,266.95 678.50,263.49 C669.66,261.65 658.26,262.02 647.38,264.51 C639.90,266.22 633.00,268.91 633.00,270.11 C633.00,270.60 637.84,271.00 643.75,271.00 C651.24,271.00 656.48,271.57 661.00,272.86 C680.60,278.47 695.46,291.58 704.40,311.16 C709.35,322.00 710.50,327.89 710.46,342.00 C710.43,353.37 710.14,355.29 707.33,363.26 C705.62,368.08 702.72,374.52 700.87,377.58 C696.25,385.21 686.55,394.80 679.19,399.00 C675.82,400.92 673.05,402.73 673.05,403.00 C673.04,403.27 675.59,404.99 678.71,406.82 C683.84,409.81 684.88,410.07 689.44,409.44 C692.22,409.06 695.62,408.35 697.00,407.86 C698.95,407.17 698.54,407.84 695.11,410.92 L 690.73 414.86 L 693.61 419.68 C698.55,427.95 699.22,430.19 699.33,439.00 C699.49,451.82 696.65,457.62 688.74,460.57 C676.92,464.99 677.36,464.69 674.27,470.68 C673.08,472.97 671.67,475.67 671.14,476.68 C670.61,477.68 667.00,485.02 663.11,493.00 C656.13,507.29 652.99,513.23 644.60,528.00 C642.26,532.12 640.06,536.27 639.71,537.22 C639.37,538.16 635.84,543.79 631.87,549.72 C611.96,579.47 592.76,598.04 572.50,607.17 C562.06,611.87 559.18,612.70 549.03,613.95 ZM 523.45 593.56 C561.58,603.42 595.90,582.42 628.97,529.00 C631.86,524.33 640.32,508.58 647.76,494.00 C666.56,457.21 670.39,451.75 678.37,450.47 C685.42,449.34 687.00,447.74 686.99,441.73 C686.97,430.21 678.19,419.07 663.75,412.23 C659.21,410.08 653.25,407.75 650.50,407.05 C642.14,404.94 626.77,399.93 622.00,397.77 C619.53,396.65 614.58,394.41 611.00,392.79 C607.42,391.18 602.70,388.68 600.50,387.25 C598.30,385.82 594.88,383.60 592.91,382.30 C587.49,378.75 573.66,373.16 563.00,370.21 C554.54,367.86 551.70,367.57 537.00,367.55 C514.91,367.51 505.46,369.69 487.32,379.01 C475.19,385.24 464.00,394.12 448.90,409.51 C442.08,416.46 433.58,424.28 430.00,426.87 C421.88,432.77 408.74,440.35 402.05,442.98 C388.19,448.44 381.46,453.37 378.10,460.50 C373.63,470.01 376.66,481.85 385.91,491.03 C392.04,497.11 396.49,499.00 404.70,499.00 C409.53,499.00 409.85,499.19 416.12,505.75 C419.67,509.46 426.89,517.67 432.17,524.00 C449.17,544.38 470.20,565.31 478.89,570.50 C479.81,571.05 484.38,574.03 489.03,577.13 C501.19,585.21 513.05,590.87 523.45,593.56 ZM 556.03 583.13 C551.72,584.37 546.46,584.98 540.50,584.94 C517.19,584.78 494.21,572.97 468.24,547.81 C455.71,535.68 431.85,506.52 427.51,498.04 C425.47,494.07 405.28,473.00 403.50,473.00 C401.99,473.00 400.19,476.95 399.38,482.03 C398.61,486.85 397.59,487.02 394.99,482.75 C393.48,480.28 393.01,477.71 393.00,472.05 C393.00,465.64 393.36,464.08 395.63,460.81 C398.92,456.06 402.93,453.98 410.11,453.29 C417.04,452.62 418.59,454.16 414.38,457.52 L 411.50 459.82 L 414.00 462.52 C419.46,468.41 435.52,476.91 450.89,482.03 C455.63,483.61 470.98,488.33 485.00,492.51 C499.02,496.70 514.17,501.42 518.66,503.00 C538.35,509.94 549.36,507.33 567.21,491.48 C592.99,468.58 595.83,466.21 607.73,457.63 C628.35,442.79 650.40,433.08 664.41,432.70 C669.88,432.54 671.15,432.88 674.33,435.31 C677.61,437.80 680.02,442.31 678.76,443.57 C678.49,443.84 676.98,443.56 675.39,442.95 C673.79,442.34 670.61,442.14 668.25,442.49 C664.86,442.99 663.28,443.98 660.45,447.37 C656.56,452.02 648.22,466.13 647.78,468.81 C647.63,469.74 647.28,470.73 647.00,471.00 C646.72,471.27 643.04,478.50 638.82,487.05 C621.69,521.69 608.41,542.29 592.50,558.85 C578.95,572.96 569.41,579.31 556.03,583.13 ZM 825.87 727.20 C829.38,730.94 832.62,734.00 833.09,734.00 C835.44,734.00 836.16,729.33 835.58,717.87 C833.94,685.66 822.89,654.84 803.19,627.50 C790.87,610.41 771.89,592.20 771.19,596.81 C771.02,597.94 771.61,600.28 772.50,602.01 C773.40,603.74 774.25,607.03 774.41,609.33 C774.56,611.62 775.03,616.46 775.46,620.07 C776.46,628.51 774.61,640.10 771.36,645.75 C770.02,648.09 768.57,650.00 768.15,650.00 C767.72,650.00 766.39,650.92 765.19,652.04 C763.29,653.81 763.00,655.14 763.00,662.00 C763.00,670.95 760.24,684.11 756.50,692.99 C755.13,696.26 754.00,699.55 754.00,700.29 C754.00,703.14 761.25,709.89 772.15,717.19 C784.85,725.68 797.85,733.00 800.26,733.00 C802.89,733.00 804.09,726.95 804.20,713.09 C804.27,705.89 804.62,700.00 805.00,700.00 C805.38,700.00 808.80,704.59 812.60,710.20 C816.39,715.82 822.37,723.47 825.87,727.20 ZM 683.97 834.97 C686.44,837.61 687.48,838.00 692.15,838.00 C702.69,838.00 714.73,829.84 725.87,815.14 C738.18,798.90 749.01,774.24 753.39,752.44 C758.02,729.37 750.55,718.70 731.36,721.02 C712.56,723.28 698.53,742.64 689.89,778.25 C689.26,780.86 688.36,783.00 687.90,783.00 C687.44,783.00 687.32,783.67 687.64,784.50 C687.95,785.33 687.77,786.00 687.22,786.00 C685.78,786.00 682.25,799.91 680.87,811.00 C679.29,823.65 680.24,830.97 683.97,834.97 ZM 389.76 837.40 C396.23,839.39 398.96,839.32 402.65,837.07 C407.20,834.30 408.34,829.82 407.76,817.11 C407.25,806.23 402.58,784.00 400.79,784.00 C400.29,784.00 400.11,783.62 400.40,783.16 C401.25,781.79 391.27,753.30 387.28,745.71 C378.69,729.37 367.44,721.00 354.06,721.00 C347.18,721.00 340.44,724.10 337.41,728.67 C334.49,733.08 333.59,744.71 335.44,754.24 C337.24,763.51 342.96,779.96 348.41,791.52 C359.11,814.25 376.23,833.24 389.76,837.40 ZM 532.50 574.35 C537.04,575.31 538.88,575.77 540.73,575.82 C542.20,575.85 543.68,575.63 546.55,575.19 C547.09,575.11 547.67,575.02 548.31,574.92 C565.90,572.28 587.97,555.62 599.87,536.00 C602.59,531.51 602.55,529.88 599.62,526.72 C589.78,516.11 561.96,513.13 546.13,521.00 C542.63,522.75 539.03,523.94 538.13,523.65 C537.23,523.37 534.70,522.45 532.50,521.61 C527.83,519.83 513.89,519.51 505.89,521.00 C495.81,522.87 477.00,533.83 477.00,537.84 C477.00,539.66 481.36,544.10 491.50,552.61 C504.69,563.69 519.66,571.62 532.50,574.35 ZM 243.78 807.42 C253.53,809.19 254.69,809.23 257.08,807.96 C259.42,806.70 258.70,804.92 253.01,798.00 C245.69,789.09 238.21,775.68 235.07,765.84 C234.43,763.82 233.28,761.94 232.51,761.64 C231.75,761.35 226.26,761.07 220.31,761.02 C204.54,760.89 200.01,760.36 189.74,757.43 C175.64,753.40 175.20,753.36 174.47,756.26 C172.88,762.58 178.15,772.41 187.75,781.02 C200.32,792.30 225.33,804.09 243.78,807.42 ZM 294.34 271.42 C289.07,275.87 283.54,280.29 282.04,281.25 C279.41,282.94 279.24,282.93 277.52,281.03 C271.56,274.43 284.90,250.11 301.48,237.38 C311.88,229.39 329.85,223.28 339.88,224.33 C352.97,225.70 364.32,231.55 369.11,239.41 C371.29,242.99 371.57,247.29 369.70,248.83 C368.90,249.50 362.76,249.88 353.45,249.83 C335.11,249.74 328.46,251.17 314.21,258.24 C307.13,261.76 300.93,265.87 294.34,271.42 ZM 710.42 227.39 C709.88,227.60 709.58,227.77 709.27,227.84 C708.59,228.00 707.81,227.71 704.27,226.41 C703.61,226.16 702.86,225.89 702.00,225.57 C698.42,224.27 692.58,222.14 689.00,220.85 C685.42,219.56 682.28,218.23 682.00,217.89 C679.12,214.41 646.00,211.60 646.00,214.84 C646.00,215.26 643.10,216.09 639.55,216.70 C636.00,217.31 631.62,218.55 629.80,219.45 C624.52,222.09 618.24,223.20 615.83,221.91 C614.00,220.93 613.82,220.18 614.35,215.72 C615.86,202.94 629.12,191.95 646.72,188.89 C659.85,186.60 682.26,191.43 692.56,198.77 C698.02,202.65 705.83,210.74 709.16,215.95 C712.33,220.90 712.94,226.43 710.42,227.39 ZM 743.00 825.98 C743.00,828.00 747.98,826.93 754.58,823.49 C764.01,818.58 772.76,811.22 778.78,803.14 C780.27,801.14 781.80,799.27 782.18,798.98 C783.26,798.17 788.58,787.05 790.55,781.50 C793.27,773.82 793.05,759.02 790.12,752.37 C787.00,745.29 783.20,741.89 777.76,741.28 C773.77,740.83 773.12,741.07 770.71,743.94 C767.64,747.59 765.18,755.02 761.93,770.50 C760.66,776.55 759.32,781.72 758.96,782.00 C758.60,782.28 758.30,783.17 758.29,784.00 C758.25,788.03 752.50,804.14 746.07,818.23 C744.38,821.93 743.00,825.42 743.00,825.98 ZM 339.50 826.79 C343.39,828.15 346.00,828.25 346.00,827.03 C346.00,826.50 344.93,823.68 343.62,820.78 C336.29,804.56 331.03,790.26 329.62,782.77 C329.39,781.52 327.75,774.20 325.99,766.50 C321.15,745.32 319.37,742.00 312.89,742.00 C307.51,742.00 304.73,743.56 301.63,748.33 C293.47,760.89 294.46,774.99 304.98,796.01 C310.19,806.43 328.81,823.03 339.50,826.79 ZM 422.38 806.51 C425.40,809.53 428.77,812.00 429.87,812.00 C434.41,812.00 438.03,801.82 437.97,789.20 C437.92,780.31 435.81,769.07 432.61,760.64 C422.71,734.56 397.00,718.02 397.00,737.74 C397.00,743.01 400.39,758.98 403.15,766.75 C404.28,769.91 405.38,773.82 405.60,775.44 C405.82,777.06 408.46,783.48 411.45,789.70 C415.59,798.31 418.21,802.34 422.38,806.51 ZM 655.04 809.55 C655.70,810.35 657.57,811.00 659.18,811.00 C663.61,811.00 669.77,804.09 675.30,792.93 C687.04,769.20 695.37,734.52 690.50,729.65 C688.33,727.47 684.54,728.12 677.58,731.86 C667.88,737.07 657.18,753.87 652.96,770.50 C649.66,783.53 650.77,804.40 655.04,809.55 ZM 653.00 395.30 C655.85,396.33 658.06,395.99 663.94,393.60 C699.55,379.13 708.11,332.85 680.46,304.25 C677.13,300.81 673.89,298.00 673.25,298.00 C672.61,298.00 673.61,300.59 675.47,303.75 C677.33,306.91 679.85,312.81 681.05,316.85 C682.92,323.08 683.17,325.73 682.70,334.35 C681.91,349.05 678.63,356.55 668.56,366.70 C658.61,376.74 644.78,381.19 629.21,379.38 C624.70,378.85 621.00,378.73 621.00,379.11 C621.00,379.71 648.81,393.78 653.00,395.30 ZM 306.00 384.42 C306.00,385.60 307.51,385.19 312.75,382.57 C330.46,373.73 346.56,370.38 367.21,371.24 C383.76,371.93 397.40,375.60 413.25,383.63 C418.95,386.51 419.24,385.46 414.53,379.04 C407.29,369.17 397.00,361.65 384.90,357.36 C373.93,353.47 356.63,352.87 345.50,355.99 C332.03,359.77 324.58,364.15 314.75,374.07 C309.94,378.92 306.00,383.58 306.00,384.42 ZM 631.68 321.02 C635.09,322.09 642.54,321.29 645.99,319.50 C652.07,316.33 655.00,311.06 655.00,303.30 C655.00,298.70 654.46,296.67 652.47,293.74 C645.33,283.23 627.41,283.33 620.28,293.91 C617.31,298.33 617.13,307.06 619.92,311.63 C622.18,315.35 627.75,319.79 631.68,321.02 ZM 274.19 795.98 C281.58,799.68 284.00,800.58 284.00,799.65 C284.00,799.45 281.57,794.16 278.60,787.90 C275.62,781.63 272.65,774.48 271.99,772.01 C271.33,769.53 269.90,765.77 268.82,763.65 C267.11,760.29 266.49,759.85 264.15,760.32 C262.67,760.62 257.53,761.18 252.73,761.57 C242.38,762.41 242.27,762.62 247.75,771.90 C252.97,780.74 264.21,790.98 274.19,795.98 ZM 666.01 862.29 C673.63,861.98 679.55,861.84 685.00,861.83 C687.41,861.82 689.40,861.81 691.01,861.80 C687.94,861.93 685.06,861.98 682.50,861.96 C678.09,861.92 672.97,862.01 666.01,862.29 ZM 723.38 858.70 C726.55,858.16 729.60,857.59 732.00,857.05 C735.08,856.36 739.56,855.61 743.67,855.08 C739.61,855.61 735.24,856.36 732.26,857.05 C729.79,857.62 726.76,858.18 723.38,858.70 ZM 801.47 804.70 C800.65,806.55 800.49,808.10 800.96,809.40 C800.95,809.38 800.94,809.35 800.93,809.32 C800.30,807.65 800.44,806.38 801.47,804.70 Z" fill="#0A0705"/>
</svg>
